# xmcd CD database file
#
# Track frame offsets:
#	150
#	3885
#	30424
#	51537
#	77351
#	97953
#	114553
#	139747
#	170226
#	186577
#	208531
#
# Disc length: 2836 seconds
#
# Revision: 1
# Processed by: cddbd v1.5PL3 Copyright (c) Steve Scherf et al.
# Submitted via: CDex 1.51
#
DISCID=8f0b120b
DTITLE=Oleg Pissarenko Quartet - Iheus
DYEAR=2002
DGENRE=Jazz
TTITLE0=A.I.pre
TTITLE1=Agape
TTITLE2=Winterwhite
TTITLE3=The New Tree
TTITLE4=Reggae Blues
TTITLE5=Radiaator
TTITLE6=Romanss for T
TTITLE7=Camel
TTITLE8=School Days
TTITLE9=Second Birthday
TTITLE10=A.I.pos
EXTD=YEAR: 2002
EXTT0=
EXTT1=
EXTT2=
EXTT3=
EXTT4=
EXTT5=
EXTT6=
EXTT7=
EXTT8=
EXTT9=
EXTT10=
PLAYORDER=
